<svg width="176" height="58" viewBox="0 0 176 58" fill="none" xmlns="http://www.w3.org/2000/svg">
<path fill-rule="evenodd" clip-rule="evenodd" d="M68 15.1001C68 18.3001 65.4999 20.2998 61.3999 20.2998H54C53.6 20.2998 53.3 20.0001 53.3 19.6001V3.6001C53.3 3.2001 53.6 2.8999 54 2.8999H61.2C63.2 2.8999 64.7999 3.4 65.8999 4.5C66.6999 5.36667 67.1001 6.4001 67.1001 7.6001C67.1001 9.3001 66.5001 10.1999 65.6001 10.8999C67.2001 11.7999 68 13.3001 68 15.1001ZM61.2 13.6001H57.3999V16.6001H61.3999C62.4999 16.6001 63.8 16.3001 63.8 15.1001C63.8 14.1001 62.9333 13.6001 61.2 13.6001ZM62.8999 8.1001C62.8999 7.2001 62.1 6.6001 60.8 6.6001H57.3999V9.6001H60.6001C62.1334 9.6001 62.8999 9.13353 62.8999 8.2002V8.1001Z" fill="#1E366C"/>
<path fill-rule="evenodd" clip-rule="evenodd" d="M86.4 20C86.2 20.1 86.0001 20.2998 85.8001 20.2998H82.8001C82.5001 20.2998 82.3 20.0998 82.2 19.7998L80.7 16.3999H74.1001L72.6001 19.7998C72.5001 20.0998 72.3 20.2998 72 20.2998H69.1001C68.9001 20.2998 68.6 20.1 68.5 20C68.4 19.8 68.4 19.4998 68.5 19.2998L75.5 3.2002C75.6 2.9002 75.9001 2.7998 76.1001 2.7998H78.7C79 2.7998 79.3 2.9002 79.4 3.2002L86.4 19.2998C86.5 19.4998 86.5 19.8 86.4 20ZM77.4 8.6001L75.7 12.5H79.1001L77.4 8.6001Z" fill="#1E366C"/>
<path d="M102.6 2.8999H99.8C99.5 2.8999 99.1001 3.2001 99.1001 3.6001V12.6001L91.8 3.1001C91.7 3.0001 91.5 2.8999 91.3 2.8999H88.7C88.3 2.8999 88 3.2001 88 3.6001V19.6001C88 20.0001 88.3 20.2998 88.7 20.2998H91.3999C91.7999 20.2998 92.1001 20.0001 92.1001 19.6001V10.2002L99.7 20C99.8 20.2 100 20.2998 100.3 20.2998H102.6C103 20.2998 103.3 20.0001 103.3 19.6001V3.6001C103.3 3.2001 103 2.8999 102.6 2.8999Z" fill="#1E366C"/>
<path d="M121.5 9.8999H114.9C114.5 9.8999 114.2 10.2001 114.2 10.6001V13.1001C114.2 13.5001 114.5 13.7998 114.9 13.7998H118.1V15.7002C117.2 16.3002 116.1 16.6001 114.9 16.6001C112.1 16.6001 110.2 14.6 110.2 11.5C110.2 8.8 112.2 6.6001 114.7 6.6001C116.5 6.6001 117.6 7.2001 118.7 8.1001C119 8.4001 119.4 8.3 119.7 8L121.5 5.8999C121.7 5.5999 121.7 5.1999 121.4 4.8999C119.4 3.2999 117.5 2.6001 114.8 2.6001C109.8 2.6001 105.8 6.5001 105.8 11.6001C105.8 16.8001 109.6 20.5 114.8 20.5C118.2 20.5 120.5 19.0999 122 17.8999C122.133 17.7666 122.2 17.5999 122.2 17.3999V10.6001C122.2 10.2001 121.9 9.8999 121.5 9.8999Z" fill="#1E366C"/>
<path d="M140.6 19.1001L134.1 10.5L140.3 4C140.5 3.8 140.5 3.5998 140.4 3.2998C140.3 2.9998 140 2.8999 139.8 2.8999H136.3C136.1 2.8999 135.933 2.96676 135.8 3.1001L129.4 9.8999V3.6001C129.4 3.2001 129.1 2.8999 128.7 2.8999H125.9C125.5 2.8999 125.2 3.2001 125.2 3.6001V19.6001C125.2 20.0001 125.5 20.2998 125.9 20.2998H128.7C129.1 20.2998 129.4 20.0001 129.4 19.6001V15.2002L131.2 13.3999L136.1 20C136.2 20.2 136.4 20.2998 136.6 20.2998H140.1C140.3 20.2998 140.6 20.0999 140.7 19.8999C140.8 19.5999 140.8 19.4001 140.6 19.1001Z" fill="#1E366C"/>
<path fill-rule="evenodd" clip-rule="evenodd" d="M158.5 11.5C158.5 16.6 154.5 20.5 149.4 20.5C144.3 20.5 140.4 16.7001 140.4 11.6001C140.4 6.5001 144.4 2.6001 149.5 2.6001C154.6 2.6001 158.5 6.4 158.5 11.5ZM149.4 6.6001C146.8 6.6001 144.7 8.7 144.7 11.5C144.7 14.4 146.8 16.5 149.5 16.5C152.2 16.5 154.2 14.4001 154.2 11.6001C154.2 8.7001 152.1 6.6001 149.4 6.6001Z" fill="#1E366C"/>
<path d="M175.9 19.1001L169.3 10.5L175.5 4C175.7 3.8 175.8 3.5998 175.6 3.2998C175.5 2.9998 175.3 2.8999 175 2.8999H171.5C171.3 2.8999 171.133 2.96676 171 3.1001L164.7 9.8999V3.6001C164.7 3.2001 164.4 2.8999 164 2.8999H161.2C160.8 2.8999 160.5 3.2001 160.5 3.6001V19.6001C160.5 20.0001 160.8 20.2998 161.2 20.2998H164C164.4 20.2998 164.7 20.0001 164.7 19.6001V15.2002L166.4 13.3999L171.3 20C171.4 20.2 171.7 20.2998 171.9 20.2998H175.3C175.6 20.2998 175.8 20.0999 175.9 19.8999C176 19.5999 176 19.4001 175.9 19.1001Z" fill="#1E366C"/>
<path d="M67.3 22.8999H64.5C64.1 22.8999 63.8 23.2001 63.8 23.6001V29.6001H57.5V23.6001C57.5 23.2001 57.2 22.8999 56.8 22.8999H54C53.6 22.8999 53.3 23.2001 53.3 23.6001V39.6001C53.3 40.0001 53.6 40.2998 54 40.2998H56.8C57.2 40.2998 57.5 40.0001 57.5 39.6001V33.6001H63.8V39.6001C63.8 40.0001 64.1 40.2998 64.5 40.2998H67.3C67.7 40.2998 68 40.0001 68 39.6001V23.6001C68 23.2001 67.7 22.8999 67.3 22.8999Z" fill="#1E366C"/>
<path fill-rule="evenodd" clip-rule="evenodd" d="M88.3999 31.5C88.3999 36.6 84.4 40.5 79.3 40.5C74.2 40.5 70.3 36.7001 70.3 31.6001C70.3 26.5001 74.2999 22.6001 79.3999 22.6001C84.4999 22.6001 88.3999 26.4 88.3999 31.5ZM79.3 26.6001C76.7 26.6001 74.6001 28.7 74.6001 31.5C74.6001 34.4 76.6999 36.5 79.3999 36.5C82.0999 36.5 84.1001 34.4001 84.1001 31.6001C84.1001 28.7001 82 26.6001 79.3 26.6001Z" fill="#1E366C"/>
<path d="M98.3 29.6001C95 28.8001 94.9999 28.4002 94.9999 27.7002C94.9999 27.0002 95.7999 26.5 96.9999 26.5C98.3999 26.5 99.8 26.9999 101.1 27.8999C101.233 28.0332 101.4 28.0667 101.6 28C101.8 28 101.967 27.9331 102.1 27.7998L103.5 25.7002C103.7 25.4002 103.6 24.9998 103.3 24.7998C101.4 23.2998 99.4 22.6001 96.9999 22.6001C93.3999 22.6001 90.6999 24.9 90.6999 28C90.6999 31.7 93.6999 32.8 96.6999 33.5C99.8999 34.2 99.8999 34.7998 99.8999 35.2998C99.8999 36.0998 98.9 36.6001 97.6 36.6001C95.9 36.6001 94.3 36.0002 92.8 34.7002C92.6667 34.5669 92.5 34.5 92.3 34.5C92.1 34.5667 91.9333 34.6665 91.8 34.7998L90.1999 36.7998C89.8999 37.0998 90 37.4998 90.3 37.7998C92.3 39.4998 94.7999 40.5 97.4999 40.5C101.5 40.5 104.2 38.3 104.2 35C104.2 31.5 101.2 30.3001 98.3 29.6001Z" fill="#1E366C"/>
<path fill-rule="evenodd" clip-rule="evenodd" d="M120.9 28.8999C120.9 32.5999 118.1 35.1001 113.8 35.1001H111V39.6001C111 40.0001 110.7 40.2998 110.3 40.2998H107.5C107.1 40.2998 106.8 40.0001 106.8 39.6001V23.6001C106.8 23.2001 107.1 22.8999 107.5 22.8999H114.1C118.2 22.8999 120.9 25.2999 120.9 28.8999ZM113.9 26.7998H111V31.2002H113.9C115.5 31.2002 116.6 30.3 116.6 29C116.6 27.2 115.1 26.7998 113.9 26.7998Z" fill="#1E366C"/>
<path d="M127 22.8999H124.1C123.8 22.8999 123.5 23.2001 123.5 23.6001V39.6001C123.5 40.0001 123.8 40.2998 124.1 40.2998H127C127.3 40.2998 127.7 40.0001 127.7 39.6001V23.6001C127.7 23.2001 127.3 22.8999 127 22.8999Z" fill="#1E366C"/>
<path d="M144.3 22.8999H131.2C130.8 22.8999 130.5 23.2001 130.5 23.6001V26.2002C130.5 26.6002 130.8 26.8999 131.2 26.8999H135.4V39.6001C135.4 40.0001 135.7 40.2998 136.1 40.2998H138.9C139.3 40.2998 139.6 40.0001 139.6 39.6001V26.8999H144.3C144.7 26.8999 145 26.6002 145 26.2002V23.6001C145 23.2001 144.7 22.8999 144.3 22.8999Z" fill="#1E366C"/>
<path fill-rule="evenodd" clip-rule="evenodd" d="M161.4 39.8999C161.3 40.0999 161.1 40.2998 160.9 40.2998H157.9C157.6 40.2998 157.4 40.0998 157.2 39.7998L155.8 36.3999H149.1L147.7 39.7998C147.6 40.0998 147.3 40.2998 147 40.2998H144.2C143.9 40.2998 143.7 40.0999 143.6 39.8999C143.5 39.7999 143.4 39.4998 143.5 39.2998L150.6 23.2002C150.7 22.9002 150.9 22.7998 151.2 22.7998H153.8C154.1 22.7998 154.3 22.9002 154.4 23.2002L161.5 39.2998C161.6 39.4998 161.6 39.7999 161.4 39.8999ZM152.5 28.6001L150.8 32.5H154.2L152.5 28.6001Z" fill="#1E366C"/>
<path d="M175.3 36.2002H167.7V23.6001C167.7 23.2001 167.4 22.8999 167 22.8999H164.2C163.8 22.8999 163.5 23.2001 163.5 23.6001V39.6001C163.5 40.0001 163.8 40.2998 164.2 40.2998H175.3C175.7 40.2998 176 40.0001 176 39.6001V36.8999C176 36.4999 175.7 36.2002 175.3 36.2002Z" fill="#1E366C"/>
<path d="M36 21.6001H32V25.6001C32 26.3001 31.4 26.8999 30.7 26.8999H22.7C21.9 26.8999 21.3 27.5002 21.3 28.2002V36.2002C21.3 37.0002 20.7 37.6001 20 37.6001H12C11.3 37.6001 10.7 37.0002 10.7 36.2002V28.2002C10.7 27.5002 10.1 26.8999 9.30005 26.8999H0V42.8999H31.5H31.7C37.7999 42.7999 42.7 37.8998 42.7 31.7998C42.7 27.1998 39.9 23.3001 36 21.6001Z" fill="#1E366C"/>
<path d="M31.7 0.200195H0V16.2002H9.30005C10.1 16.2002 10.7 15.5999 10.7 14.8999V6.8999C10.7 6.1999 11.3 5.6001 12 5.6001H20C20.7 5.6001 21.3 6.1999 21.3 6.8999V14.8999C21.3 15.5999 21.9 16.2002 22.7 16.2002H30.7C31.4 16.2002 32 16.8001 32 17.6001V21.6001H36C39.9 19.8001 42.7 15.8999 42.7 11.3999C42.7 5.2999 37.7999 0.300195 31.7 0.200195Z" fill="#B22029"/>
<path d="M9.30005 16.2002C10.1 16.2002 10.7 15.5999 10.7 14.8999V6.8999C10.7 6.4999 10.8001 6.1999 11.1001 5.8999L0 16.2002H9.30005Z" fill="#6A1931"/>
<path d="M30.7 16.2002H22.7C21.9 16.2002 21.3 15.5999 21.3 14.8999V6.8999C21.3 6.1999 20.7 5.6001 20 5.6001H12C11.3 5.6001 10.7 6.1999 10.7 6.8999V14.8999C10.7 15.5999 10.1 16.2002 9.30005 16.2002H0V26.8999H9.30005C10.1 26.8999 10.7 27.5002 10.7 28.2002V36.2002C10.7 37.0002 11.3 37.6001 12 37.6001H20C20.7 37.6001 21.3 37.0002 21.3 36.2002V28.2002C21.3 27.5002 21.9 26.8999 22.7 26.8999H30.7C31.4 26.8999 32 26.3001 32 25.6001V17.6001C32 16.8001 31.4 16.2002 30.7 16.2002Z" fill="#FEFEFE"/>
<path d="M52.8999 53.2998C52.8999 50.7998 54.8 48.7998 57.5 48.7998C59.1 48.7998 60.0999 49.3001 60.8999 50.1001L59.7 51.5C59 50.9 58.3 50.6001 57.5 50.6001C56 50.6001 54.8999 51.7998 54.8999 53.2998C54.8999 54.7998 56 56 57.5 56C58.5 56 59.1 55.6 59.8 55L61 56.2002C60.1 57.2002 59.0999 57.7998 57.3999 57.7998C54.7999 57.7998 52.8999 55.7998 52.8999 53.2998Z" fill="#778692"/>
<path d="M62.5 48.8999H64.3999V52.3999H68V48.8999H69.8999V57.7002H68V54.2002H64.3999V57.7002H62.5V48.8999Z" fill="#778692"/>
<path fill-rule="evenodd" clip-rule="evenodd" d="M75 48.8999H76.7L80.3999 57.7002H78.3999L77.6001 55.7002H74L73.2 57.7002H71.2L75 48.8999ZM77 54L75.8999 51.2002L74.7 54H77Z" fill="#778692"/>
<path d="M81.8 48.8999H83.6001L87.6001 54.2998V48.8999H89.5V57.7002H87.8999L83.7 52.1001V57.7002H81.8V48.8999Z" fill="#778692"/>
<path d="M93.6001 50.7002H91V48.8999H98.2V50.7002H95.6001V57.7002H93.6001V50.7002Z" fill="#778692"/>
<path d="M99.7 48.8999H101.6V52.3999H105.1V48.8999H107V57.7002H105.1V54.2002H101.6V57.7002H99.7V48.8999Z" fill="#778692"/>
<path fill-rule="evenodd" clip-rule="evenodd" d="M112.1 48.8999H113.9L117.6 57.7002H115.6L114.8 55.7002H111.1L110.3 57.7002H108.4L112.1 48.8999ZM114.1 54L112.9 51.2002L111.8 54H114.1Z" fill="#778692"/>
<path fill-rule="evenodd" clip-rule="evenodd" d="M119 48.8999H123C124 48.8999 124.8 49.2002 125.3 49.7002C125.7 50.1002 125.9 50.6002 125.9 51.2002C125.9 52.2002 125.4 52.8001 124.7 53.1001C125.7 53.5001 126.4 54.1002 126.4 55.2002V55.2998C126.4 56.8998 125.1 57.7002 123.1 57.7002H119V48.8999ZM124 51.3999C124 50.8999 123.5 50.5 122.7 50.5H120.8V52.3999H122.6C123.4 52.3999 124 52.1 124 51.5V51.3999ZM123 53.8999H120.8V55.7998H123.1C124 55.7998 124.5 55.4999 124.5 54.8999V54.7998C124.5 54.2998 124 53.8999 123 53.8999Z" fill="#778692"/>
<path d="M127.8 53.8999V48.8999H129.7V53.8999C129.7 55.2999 130.4 56 131.6 56C132.8 56 133.5 55.2999 133.5 53.8999V48.8999H135.4V53.8999C135.4 56.4999 133.9 57.7998 131.6 57.7998C129.2 57.7998 127.8 56.4999 127.8 53.8999Z" fill="#778692"/>
<path fill-rule="evenodd" clip-rule="evenodd" d="M137.4 48.8999H141.3C142.433 48.9666 143.3 49.2665 143.9 49.7998C144.4 50.2998 144.6 50.9998 144.6 51.7998C144.6 53.2998 143.9 54.1 142.7 54.5L144.9 57.7002H142.6L140.8 54.8999H139.3V57.7002H137.4V48.8999ZM141.2 53.1001C142.1 53.1001 142.7 52.5999 142.7 51.8999V51.7998C142.7 50.9998 142.1 50.6001 141.2 50.6001H139.3V53.1001H141.2Z" fill="#778692"/>
<path d="M146.4 48.8999H148.3V57.7002H146.4V48.8999Z" fill="#778692"/>
</svg>
